<svg xmlns="http://www.w3.org/2000/svg" width="718" height="110.147" viewBox="0 0 718 110.147"><defs><style>.a,.b{fill:#fff;}.b{stroke:rgba(0,0,0,0);stroke-miterlimit:10;}</style></defs><path class="a" d="M340.009,131.579H340l-.173.041a160.993,160.993,0,0,0-25.372,7.867,173.136,173.136,0,0,0,24.334-17.735.039.039,0,0,0-.018-.071l-.015,0-.151.057A165.923,165.923,0,0,0,314.066,133.2a195.916,195.916,0,0,0,21.975-21.187c.029-.031.011-.073-.019-.073l-.021.007-.222.12a182.059,182.059,0,0,0-23.262,14.573,208.484,208.484,0,0,0,19.322-23.913.041.041,0,0,0-.024-.07.059.059,0,0,0-.026.008s-.138.094-.159.115a194.324,194.324,0,0,0-22.237,18.249A221.509,221.509,0,0,0,326.208,94.26a.043.043,0,0,0-.028-.068.047.047,0,0,0-.029.013l-.154.143a206.146,206.146,0,0,0-20.559,21.66,231.844,231.844,0,0,0,13.911-29.174c.015-.036-.007-.065-.031-.065a.044.044,0,0,0-.034.018l-.131.157a217.865,217.865,0,0,0-18.283,24.542,240.749,240.749,0,0,0,10.58-30.814c.01-.036-.01-.062-.034-.062a.046.046,0,0,0-.036.023l-.076.115a227.576,227.576,0,0,0-15.783,27.525,247,247,0,0,0,7.209-32.312c0-.034-.015-.057-.037-.057a.04.04,0,0,0-.036.028l-.058.118a235.619,235.619,0,0,0-12.787,29.871,250.326,250.326,0,0,0,3.648-33.208c0-.034-.016-.053-.037-.053a.044.044,0,0,0-.037.032l-.047.128a239.755,239.755,0,0,0-9.482,31.868,251.417,251.417,0,0,0,.013-33.763c0-.031-.019-.047-.037-.047s-.032.011-.039.037l-.026.11a218.13,218.13,0,0,0-5.486,34.432v0c-.011.131-.023.264-.036.4s-.024.275-.037.415v.016a276.361,276.361,0,0,0-2.667-35.893c0-.028-.019-.042-.036-.042s-.031.015-.034.042q-.158,1.14-.3,2.282l-.023.172q-.124.95-.241,1.9l-.044.358c-.07.572-.139,1.145-.206,1.72-.023.194-.045.39-.066.585-.058.5-.115,1-.17,1.5-.029.264-.057.531-.086.8-.045.436-.092.873-.138,1.312-.032.321-.063.645-.1.967-.037.387-.076.773-.113,1.163-.034.369-.066.742-.1,1.114-.031.347-.063.693-.094,1.042-.034.413-.068.831-.1,1.246-.024.313-.052.622-.076.936-.036.462-.068.928-.1,1.395-.019.27-.04.541-.06.813-.034.5-.066,1.006-.1,1.511-.016.248-.032.492-.047.74-.032.525-.062,1.054-.091,1.584-.013.236-.026.471-.039.709-.029.549-.055,1.106-.081,1.662-.01.224-.021.444-.031.669-.024.567-.047,1.142-.068,1.719-.008.222-.018.442-.026.666-.019.573-.037,1.155-.055,1.738-.007.235-.015.465-.019.7-.016.57-.028,1.148-.04,1.728,0,.256-.011.51-.016.768-.01.565-.018,1.137-.024,1.71,0,.224-.008.444-.01.669a219.785,219.785,0,0,0-5.585-35.36c-.006-.026-.023-.037-.039-.037s-.037.016-.039.047c-.042.763-.083,1.524-.12,2.289l-.011.238q-.044.916-.083,1.834l-.019.5c-.021.525-.042,1.048-.06,1.573-.008.24-.015.481-.023.721q-.022.68-.042,1.365c-.008.306-.015.614-.021.922-.01.39-.019.779-.026,1.17-.006.364-.011.73-.016,1.095,0,.34-.011.68-.015,1.022,0,.41-.006.823-.008,1.234,0,.3,0,.6,0,.9q0,.675,0,1.359c0,.267,0,.533,0,.8,0,.483.01.97.016,1.458,0,.243.006.486.01.731.01.512.021,1.029.032,1.547,0,.224.01.447.015.672.014.536.031,1.077.049,1.62.006.212.013.424.021.638.019.556.04,1.116.065,1.678.008.207.016.413.026.622.026.569.053,1.144.083,1.72.011.207.021.415.032.624.031.58.065,1.165.1,1.751.013.215.026.431.039.648q.056.87.118,1.754.024.35.049.7c.042.573.086,1.155.131,1.738.013.151.023.3.034.449a240.74,240.74,0,0,0-9.892-33.611.044.044,0,0,0-.039-.032c-.019,0-.039.019-.037.053q.061,1.125.13,2.252c.007.1.013.194.018.292.037.59.075,1.181.115,1.772.011.186.026.374.039.56.036.5.07,1,.107,1.506.019.254.04.512.061.768q.049.649.1,1.3c.026.313.055.627.081.939.034.381.066.76.1,1.142q.049.535.1,1.072c.032.34.065.679.1,1.02q.061.6.123,1.2c.032.3.063.607.1.912.047.433.1.867.146,1.3.032.275.063.551.1.826.053.462.11.927.167,1.391.032.254.063.509.1.766q.092.724.189,1.456l.1.731c.068.5.139,1,.211,1.51l.1.713c.074.513.152,1.033.232,1.553.036.233.071.468.107.7.083.526.165,1.058.253,1.591.037.235.076.471.115.708.087.536.178,1.077.27,1.62q.063.36.126.724.141.812.288,1.633c.047.256.094.512.141.769q.148.809.3,1.628c.024.123.045.243.068.366a235.818,235.818,0,0,0-13.372-31.5.041.041,0,0,0-.037-.028c-.021,0-.041.023-.036.057q.185,1.11.374,2.219c.018.1.034.193.052.29q.151.867.3,1.735c.032.183.066.366.1.548.089.492.18.986.272,1.479.045.245.092.489.138.732q.124.649.249,1.3c.058.295.117.591.176.888.076.381.151.763.228,1.145q.1.51.212,1.02c.071.34.141.682.214,1.022.081.379.164.76.246,1.139l.2.917c.091.408.185.82.279,1.231.063.282.128.565.193.847q.151.651.306,1.3c.063.264.125.528.189.794.108.455.222.914.335,1.374q.092.372.185.748c.12.475.241.954.366,1.434.06.236.121.475.183.711q.194.744.393,1.492c.062.23.123.46.186.692q.207.763.419,1.534c.065.227.128.455.193.685q.219.777.444,1.565c.066.232.134.463.2.7q.228.79.466,1.587c.071.24.144.479.215.719.16.53.321,1.061.486,1.6.031.1.058.191.088.288a228.246,228.246,0,0,0-16.544-29.058.045.045,0,0,0-.036-.023c-.024,0-.044.026-.034.062q.3,1.067.609,2.133l.088.3q.24.826.484,1.654l.16.531c.141.471.282.944.426,1.417.071.233.144.467.215.7.13.416.257.831.389,1.249.086.277.175.556.264.834.118.373.236.747.358,1.121.1.313.2.627.306.941.112.339.222.677.335,1.016s.23.688.347,1.033q.158.471.319.943.19.552.382,1.106.153.437.306.876c.138.39.278.782.418,1.176.1.275.2.551.3.828.147.408.3.816.448,1.226q.148.4.3.8c.157.421.317.846.478,1.27q.148.389.3.778.25.656.51,1.315c.1.253.2.5.3.756.177.45.358.9.539,1.356q.151.374.3.752c.186.458.374.918.567,1.382.1.254.211.509.317.765q.289.695.588,1.4.168.394.338.79c.2.465.4.93.6,1.4.039.089.074.175.113.264a218.208,218.208,0,0,0-19.241-25.995.039.039,0,0,0-.032-.018c-.024,0-.045.029-.031.065q.4.986.81,1.968c.049.117.1.233.147.348.209.5.418,1,.63,1.5.087.207.177.413.264.619.175.408.348.816.525,1.223q.18.416.363.828c.147.339.295.677.445,1.016s.292.656.439.983c.128.287.256.572.385.86.167.368.337.739.507,1.108.113.248.225.494.34.74q.279.6.567,1.21c.1.215.2.429.3.645.2.428.41.858.617,1.288.094.194.186.389.282.583.217.449.439.9.661,1.348.089.178.175.355.264.533q.35.7.708,1.408c.083.164.165.327.249.491q.367.722.745,1.448c.083.159.164.316.246.473.254.489.515.983.777,1.477.084.156.167.311.249.468.267.5.538,1,.811,1.5.084.156.168.311.254.467.275.5.554,1.009.837,1.516.091.162.181.326.272.489q.423.751.855,1.511l.3.528q.427.746.865,1.5c.057.1.112.2.17.293a206.615,206.615,0,0,0-21.69-23,.047.047,0,0,0-.029-.013c-.028,0-.047.034-.028.068q.5.918,1.012,1.83c.053.1.11.2.165.293q.393.707.793,1.412c.1.181.207.363.311.543.22.387.44.774.664,1.16.139.243.282.486.423.727.188.322.376.646.565.969.173.295.35.59.526.886q.24.4.483.81c.2.334.4.669.607,1,.141.233.28.465.423.7q.34.554.685,1.108l.368.593c.248.4.5.794.753,1.192l.329.518c.267.418.539.837.811,1.259l.3.462q.425.654.863,1.31c.092.141.186.282.28.424.3.445.6.894.9,1.343.092.136.185.272.277.41q.464.678.938,1.362c.094.136.188.272.283.408.317.457.641.917.967,1.377l.293.415q.488.688.989,1.38c.107.146.21.292.317.437q.5.683,1.006,1.372c.115.157.232.314.348.473q.5.673,1.012,1.354l.222.3a194.768,194.768,0,0,0-23.5-19.417.048.048,0,0,0-.024-.008.041.041,0,0,0-.024.07q.593.833,1.192,1.662l.155.214q.479.661.963,1.323c.11.147.22.3.33.445.266.361.533.721.8,1.082l.47.625c.227.3.452.6.68.9.191.251.385.5.578.755s.392.512.589.766c.227.295.458.59.69.884l.5.633c.257.326.52.653.78.98.144.181.288.363.434.543.283.353.57.7.858,1.058.126.156.253.311.382.468.3.373.615.745.926,1.119l.343.413q.488.583.988,1.168l.317.373c.342.4.69.8,1.04,1.205.1.115.2.23.3.345q.532.61,1.077,1.225c.1.113.2.228.306.343.363.408.732.816,1.1,1.226.108.12.215.238.325.358.371.408.748.818,1.127,1.228.113.123.227.246.342.369q.566.607,1.146,1.223c.125.133.249.264.376.4q.563.6,1.145,1.2c.091.094.178.188.269.282a182.783,182.783,0,0,0-24.692-15.591l-.021-.007a.042.042,0,0,0-.021.073l.066.07h0l.026.029a198.8,198.8,0,0,0,14.884,14.808l.014.013q.736.656,1.493,1.315l.047.042q.746.651,1.512,1.306l.068.058q.753.641,1.525,1.288l.1.086q.772.644,1.566,1.293l.107.089q.792.646,1.609,1.3l.113.091.24.194a167.185,167.185,0,0,0-26.087-12.314l-.016,0c-.032,0-.049.044-.016.071l.141.12h0l.029.026c1.665,1.424,3.35,2.815,5.078,4.182.139.11.277.222.418.332.274.215.551.429.827.645.212.164.423.33.636.494.244.188.494.376.742.564s.5.379.747.567l.69.514.827.612c.215.157.434.314.651.473l.9.65.62.439c.319.227.64.452.964.679.2.138.4.277.6.415.34.235.68.47,1.025.7l.576.39q.537.362,1.082.724c.189.126.38.253.572.377q.561.372,1.135.743l.557.36q.59.379,1.192.76c.183.117.366.233.552.35q.617.389,1.247.778c.181.112.363.225.546.337q.646.4,1.305.8l.541.327q.673.4,1.36.81c.125.073.245.146.371.22a161.492,161.492,0,0,0-27.14-8.559h-.01c-.037,0-.05.047-.015.071l.151.1,0,0q.663.437,1.326.87l.131.086q.721.471,1.441.938l.154.1c.453.292.905.582,1.36.871l.214.136q.665.423,1.334.842l.206.128q.682.428,1.37.849l.177.109q.736.452,1.482.9l.076.045q.76.457,1.532.909l.155.089q.721.42,1.452.839l.2.117q.721.408,1.454.815l.211.117c.5.275,1,.548,1.507.821l.181.1q.8.43,1.629.858l.105.055q.843.437,1.708.871l.185.092q.806.4,1.637.807l.251.121c.541.259,1.087.52,1.642.779l.274.128q.845.394,1.715.786c.081.036.16.073.241.11q.918.411,1.867.823l.107.047a151.485,151.485,0,0,0-27.307-4.28h0a.036.036,0,0,0-.011.07l.113.052h0q.736.343,1.472.682l.453.209,1.121.517.581.264q.5.228,1,.455c.212.1.426.193.638.288l.962.433.651.288q.49.219.986.434c.212.092.424.185.636.279l1.056.453c.194.081.385.164.58.246.436.185.876.368,1.318.551l.338.141q.836.342,1.684.68l.447.175q.627.248,1.26.492c.217.083.437.165.656.246.361.138.724.274,1.091.41l.738.269c.35.126.7.251,1.054.377l.782.272c.353.123.709.243,1.067.364.267.089.534.18.8.269.368.121.742.241,1.117.361.266.084.53.17.8.254.421.131.85.261,1.281.39.23.07.455.141.687.209q.952.282,1.933.556c.309.086.627.17.941.256.371.1.742.2,1.119.3.1.026.2.053.3.081-4.027-.3-7.753-.444-11.284-.444a141.8,141.8,0,0,0-15.6.881.034.034,0,0,0,0,.068q.967.26,1.954.523c.238.065.478.128.716.191.393.1.789.209,1.187.313l.946.248.968.248c.369.1.737.19,1.109.283l.523.13q1.377.343,2.793.677c.151.034.3.07.448.105.5.115,1,.23,1.508.342.168.039.337.076.507.113q.789.175,1.595.343c.11.024.222.047.332.07,2.46.512,5.015.98,7.677,1.383.094.015.186.029.28.042q.962.146,1.941.275l.191.026c2.092.277,4.251.51,6.483.687l.039,0a129.948,129.948,0,0,0-25.381,5.269.03.03,0,0,0,0,.06l.144.01h0l.026,0q.787.056,1.6.107l.17.011c.5.031,1.01.063,1.53.092l.3.016c.481.028.963.053,1.457.078l.474.023c.444.021.889.042,1.342.062.228.01.463.016.695.026.392.014.782.031,1.18.044.306.01.619.016.929.026.33.008.659.019.994.028.4.008.8.013,1.2.019.261,0,.517.011.781.015q1,.01,2.017.011,1.081,0,2.184-.016c.287,0,.576-.011.865-.016.44-.008.881-.018,1.326-.029q.563-.017,1.132-.037l1.065-.04c.434-.019.868-.039,1.305-.062l.876-.049c.489-.029.98-.058,1.472-.092l.612-.045q2.689-.2,5.429-.517c.193-.023.385-.042.578-.066a118,118,0,0,0-22.371,9.641.026.026,0,0,0,.01.05h0l.188-.029,0,0c.382-.057.774-.115,1.172-.178.22-.034.45-.071.677-.109s.481-.076.727-.118.479-.079.721-.122l.763-.133.716-.128c.309-.055.623-.115.938-.173s.6-.113.912-.173q.568-.109,1.148-.227c.235-.047.473-.1.711-.146q.454-.092.915-.19c.254-.055.508-.109.764-.165.314-.068.633-.138.952-.209l.725-.162q.785-.18,1.582-.369l.693-.169q.512-.124,1.03-.253l.813-.207q.474-.119.949-.246c.277-.071.552-.144.831-.219.343-.092.688-.188,1.033-.283.372-.1.746-.207,1.121-.313.413-.118.827-.236,1.24-.358.293-.086.586-.175.879-.264l.892-.271c.309-.1.617-.191.925-.29.287-.091.572-.181.858-.275.312-.1.625-.2.938-.3s.6-.2.9-.306q.828-.282,1.652-.577c.253-.091.505-.18.758-.272l.4-.144A101.787,101.787,0,0,0,241.1,180.455a.021.021,0,0,0,.011.039l.008,0,.254-.1h0l.018-.006.814-.319.24-.094.693-.274.308-.123.674-.267.332-.134c.225-.089.45-.18.68-.272l.333-.136c.238-.1.478-.194.721-.295l.291-.12c.259-.107.52-.214.782-.326.084-.034.168-.07.251-.105l.855-.36.177-.076q.466-.2.939-.4l.133-.058q.5-.219,1.007-.444l.028-.013c8.758-3.9,18.866-9.479,24.853-17.345a2.6,2.6,0,0,1-.236.215c-4.077,3.3-8.6,5.959-14.831,9.531-4.7,2.7-10.758,6.126-18.1,10.755h0a101.738,101.738,0,0,1,17.846-12.628c.126-.049.248-.1.374-.151.708-.277,1.414-.56,2.112-.852.057-.023.112-.047.167-.071q1.161-.486,2.294-1l.068-.029h0a72.826,72.826,0,0,0,10.311-5.768c-4.694,2.525-12.091,4.876-19.952,7.129a254.287,254.287,0,0,0-25.15,8.245h0a118.8,118.8,0,0,1,22.642-9.419c.141-.019.282-.044.421-.063q.9-.126,1.8-.269c.215-.034.431-.07.644-.105q1-.165,2.006-.348l.283-.055a88.408,88.408,0,0,0,17.306-5.114c-6.6,1.738-15.417,2.577-25.022,3.309-8.621.658-18.409,1.4-29.394,3.068-.021,0,.019,0,0,0a130.18,130.18,0,0,1,25.649-5.025q1.564.1,3.175.167c.408.016.816.032,1.227.045.363.01.725.021,1.09.028.863.019,1.731.032,2.615.032,1.035,0,2.09-.018,3.154-.044l.594-.016a147.334,147.334,0,0,0,16.911-1.565l-1.135,0c-10.35,0-23.472-1.366-35.1-2.639-9.086-.995-17.7-1.936-23.85-2.077a138.241,138.241,0,0,1,14.107-.729c4.1,0,8.362.191,12.892.575q1.924.476,3.967.92l.07.016c.565.123,1.142.243,1.72.361.183.037.361.076.546.113.47.094.949.186,1.43.279.308.06.614.12.926.178.394.073.8.144,1.2.215s.829.149,1.25.22c.33.057.669.112,1,.168.505.083,1.012.167,1.527.246.283.045.572.087.857.131.58.089,1.164.175,1.759.261.249.036.5.07.754.1q.957.134,1.937.261c.1.011.186.026.283.037v0c4.048.517,9.141,1.011,13.864,1.354-7.686-1.305-20.286-4.78-31.774-8.1-11.22-3.238-22.792-6.576-30.942-8.107a151.172,151.172,0,0,1,27.36,4.6l.133.055.751.313c.112.045.223.092.335.139q.551.226,1.114.454l.074.029c.356.144.714.287,1.077.429l.245.1c.316.125.633.248.954.373l.243.094q.5.194,1.015.389l.176.068c7.774,2.945,17.674,6.076,29.238,9.162-10.439-3.978-19.581-7.973-29.4-12.388-9.17-4.124-19.75-8.924-33.881-14.69-.071-.047.071.045,0,0a160.657,160.657,0,0,1,27.708,9.037l.334.191c.22.128.442.254.666.382.5.283.993.567,1.5.85.2.112.4.222.6.334l1.169.651.659.365q.789.435,1.6.871c.225.123.455.246.682.369q.631.34,1.274.684l.609.326c.562.3,1.135.6,1.712.9l.74.387q.784.408,1.582.821l.74.381q.753.386,1.524.778l.724.368q.952.481,1.93.97l.644.322,1.653.82c.206.1.408.2.614.3.594.292,1.193.586,1.8.883v0c3.693,1.8,8.6,4.124,12.821,6.086-9.921-5.362-19.918-11.389-29.447-17.283-9.222-5.7-19.823-12.3-32.652-19.528h0a171.789,171.789,0,0,1,26.423,12.761c.572.447,1.154.9,1.742,1.351l.249.191q1.741,1.331,3.588,2.7l.283.209c.589.433,1.184.868,1.791,1.306l.084.062q.945.683,1.917,1.372l.374.264q.838.593,1.7,1.191c.108.076.214.151.322.225q.972.675,1.969,1.359c.159.107.319.215.476.324q.809.549,1.635,1.106l.536.361q1,.671,2.031,1.353l.559.368q.811.535,1.64,1.074l.7.455c.678.439,1.362.88,2.056,1.325h0c3.506,2.245,8.01,5.034,12.028,7.461-9.672-6.9-16.686-12.472-24.536-18.9-7.963-6.517-17.957-14.727-34.907-27.506h0a181.61,181.61,0,0,1,24.844,15.957c.2.206.41.415.615.622.189.193.377.382.568.575q.682.688,1.386,1.382c.215.212.434.428.651.64q.44.432.887.867c.249.243.5.486.753.731.285.275.575.552.865.829q.678.649,1.373,1.3c.262.248.525.5.792.745.332.311.672.627,1.01.941l.61.564q.554.513,1.119,1.029l.283.256q1.329,1.212,2.719,2.451l.087.078q.724.646,1.469,1.3l.194.17c5.423,4.77,12.188,10.386,19.217,15.965-11.734-10.969-19.981-19.4-28.753-28.535-7.068-7.364-15.216-15.9-26.588-27.018h0a193.369,193.369,0,0,1,23.605,19.8c.272.353.549.711.826,1.067.092.12.183.238.275.356q.658.845,1.336,1.7l.492.617q.461.581.934,1.166c.191.24.384.478.578.718.314.387.633.776.952,1.168.185.224.366.447.552.674q.675.816,1.37,1.649c.269.319.542.643.814.967l.7.829.934,1.095c.181.212.366.426.551.64q1.8,2.1,3.744,4.28l.3.335q.678.763,1.373,1.534l.133.149c4.506,5,10.157,10.982,15.87,16.807-9.107-10.8-17-21.145-24.7-31.423-7.34-9.795-15.018-20.082-25.121-32.475h0a205.428,205.428,0,0,1,21.756,23.392q1.073,1.81,2.222,3.675c.11.18.223.361.335.543q.464.751.941,1.51c.131.211.262.42.4.63q.515.816,1.046,1.647l.279.437q.653,1.021,1.333,2.059l.437.666c.316.483.635.965.959,1.453l.575.865q.442.661.894,1.33c.2.3.4.594.6.894q.585.863,1.188,1.741.437.637.886,1.284c.286.413.572.826.863,1.244.274.392.552.787.831,1.182q.376.539.763,1.082c.3.42.593.839.9,1.263.24.337.486.679.73,1.02q.9,1.254,1.831,2.538l.63.868c.351.483.711.972,1.069,1.459.147.2.29.4.437.594h0c2.327,3.16,5.282,7.079,7.923,10.519-7.6-11.745-16.128-25.965-24.638-40.338-5.912-9.986-12.146-20.6-18.449-30.88-.04-.1.042.1,0,0a217.366,217.366,0,0,1,19.292,26.463q.976,2.194,2.04,4.471l.086.185q.507,1.084,1.035,2.188l.094.2q1.125,2.352,2.346,4.8c.078.157.159.316.236.473q.459.918.934,1.853l.421.826q.4.775.8,1.56l.492.951c.27.52.547,1.045.824,1.571.322.616.653,1.236.985,1.861.232.434.46.865.695,1.3.269.5.544,1.008.819,1.515.168.311.337.624.509.938q.449.824.908,1.659c.141.256.283.513.424.771.34.614.682,1.231,1.03,1.856l.029.052c2.631,4.718,5.907,10.38,9.087,15.722-7.322-15.009-13.657-28.949-21.144-45.685-4.072-9.1-8.792-19.805-14.179-31.6-.04-.146.042.146,0,0a226.655,226.655,0,0,1,16.524,29.463q.719,2.267,1.509,4.626c.039.115.078.233.117.348q.345,1.025.7,2.068c.057.165.112.329.17.494q.364,1.052.742,2.122c.045.128.089.254.135.382q.437,1.227.892,2.482c.089.243.181.492.27.737.206.564.415,1.127.627,1.7.149.4.3.812.455,1.22s.309.821.466,1.234c.183.483.368.965.554,1.453.118.306.238.617.358.926q1.656,4.281,3.549,8.9l.078.191c2.324,5.652,5.241,12.408,8.174,18.947-5.222-14.627-9.9-29.226-14.5-43.91-3.763-12-7.714-24.733-12.241-38.015-.019-.109.018.11,0,0a234.277,234.277,0,0,1,13.3,31.883q.454,2.3.97,4.693c.024.112.049.227.073.339q.231,1.062.471,2.141c.044.2.087.39.131.588q.226,1,.46,2.01c.049.207.1.411.144.62q.275,1.176.564,2.375l.105.442q.279,1.152.572,2.326c.107.428.217.862.327,1.294s.215.855.327,1.289c.131.514.266,1.03.4,1.552q.131.5.266,1.011.236.9.478,1.8c.044.164.089.329.133.491q1.287,4.791,2.8,9.994l.024.086c1.465,5.034,3.381,11.28,5.2,16.987-2.66-10.765-5.617-25.447-8.435-40.009-2.677-13.835-5.718-29.717-9.192-45.11,0-.089.006.089,0,0a238.221,238.221,0,0,1,9.792,34.019c.039.445.081.9.123,1.349.02.209.037.416.057.627q.109,1.191.235,2.4c.024.241.05.488.076.731.06.575.12,1.153.185,1.738.037.347.078.7.117,1.045.055.484.11.972.168,1.463.045.4.092.794.141,1.2.053.445.11.9.167,1.349.054.436.107.868.164,1.309.041.322.086.653.128.978q.209,1.591.436,3.228c.036.261.071.518.109.781q.133.948.275,1.911l.107.732q.151,1.025.311,2.07c.021.141.044.283.065.426,1.229,8.023,2.991,17.824,4.974,27.763-1.627-12.16-3.253-29.884-4.906-49.231-1.018-11.918-2.048-24.7-3.284-37.635.008-.155-.008.157,0,0,2.691,11.112,4.314,22.379,5.471,36.781v.739c0,.62,0,1.247.007,1.879,0,.264,0,.53.006.8q.007.9.019,1.824c0,.24.007.479.01.721.013.834.029,1.675.047,2.529,0,.16.008.326.013.488q.024,1.047.055,2.112c.008.317.019.64.029.961q.027.875.058,1.767c.011.334.023.667.036,1q.041,1.076.087,2.174c.015.348.029.7.045,1.046q.049,1.1.1,2.209c.019.407.041.818.062,1.228q.044.821.089,1.655c.024.445.049.891.074,1.341.032.581.068,1.171.1,1.762.029.478.058.954.089,1.437q.08,1.273.167,2.572c.034.491.068.991.1,1.487.037.544.076,1.09.117,1.642.037.525.076,1.051.115,1.583.042.565.087,1.139.131,1.712.039.512.078,1.019.12,1.537l0,.076h0c.283,3.554.665,7.935,1.027,11.8V72c2.819,21.281,3.752,46.058,0,87.217h0c1.6-12.106,3.157-30.2,4.785-49.244,1.039-12.174,2.116-24.757,3.386-37.994,0,.1.013.232.021.373a247.171,247.171,0,0,1-.309,35.164c-1.15,13.6-3.752,30.961-7.882,51.7,2.626-10.7,5.533-25.666,8.315-40.038,2.72-14.053,5.8-29.945,9.341-45.575l-.029.5a246.1,246.1,0,0,1-4.059,34.408c-2.6,13.324-7.225,30.713-13.568,50.71,5.05-14.22,9.9-29.642,14.389-43.955,3.833-12.223,7.8-24.858,12.432-38.417l-.075.449a242.456,242.456,0,0,1-7.729,33.387c-4.032,12.874-10.525,29.523-19.018,48.536,7.089-14.58,13.723-29.4,21.035-45.747,4.158-9.3,8.862-19.809,14.4-31.93l-.112.387a236.024,236.024,0,0,1-11.242,31.881c-5.4,12.218-13.561,27.681-24.081,45.408,7.45-11.565,16.212-26.354,24.536-40.414,6.043-10.206,12.288-20.751,18.741-31.259L318.6,88a227.531,227.531,0,0,1-14.669,30.106c-6.64,11.264-16.179,25.138-28.421,41.112,8.941-10.629,17.01-21.368,24.609-31.512,7.448-9.942,15.153-20.223,25.483-32.871l-.269.484A216.818,216.818,0,0,1,307.6,123c-7.672,10.059-18.524,22.366-32.088,36.224,11.448-10.723,20.027-19.634,28.67-28.637,7.18-7.479,15.31-15.947,26.968-27.328l-.3.411a204.144,204.144,0,0,1-20.341,24.691c-8.554,8.763-20.312,19.188-35,30.862,9.484-6.779,16.7-12.66,24.465-19.012,8.053-6.589,18.054-14.773,35.356-27.8l-.376.408a191.9,191.9,0,0,1-23.479,22.123,372.312,372.312,0,0,1-35.966,24.281c9.777-5.3,19.978-11.583,29.389-17.4,9.369-5.8,19.972-12.351,33.084-19.723l-.374.316a176.7,176.7,0,0,1-26.487,18.744l0,0c-9.183,5.306-20.273,10.976-34.63,17.646l-.985.423c10.54-4.009,19.466-8.072,29.35-12.516,9.312-4.189,19.853-8.928,34.318-14.818l-.39.256c-8.2,5.373-16.262,10.569-27.87,15.456v0a278.738,278.738,0,0,1-35.408,11.624c7.682-1.307,20.266-4.918,31.745-8.23,11.688-3.374,23.748-6.85,31.939-8.285l-.617.285c-8.522,3.947-17.321,8.2-29.716,11.295a202.12,202.12,0,0,1-33.351,4.935c10.379.023,24.515-1.49,36.227-2.771,9.487-1.038,18.454-2.017,24.649-2.091l-.62.167c-8.431,2.268-18.5,5.117-30.867,6-2.795.2-5.691.319-8.726.319a144.774,144.774,0,0,1-20.663-1.625c6.573,1.717,15.48,2.443,25.033,3.17,8.786.671,18.722,1.43,29.965,3.17l-.581.037c-4.968.326-9.288.478-13.495.478a139.477,139.477,0,0,1-18.4-.894,92.787,92.787,0,0,1-22.522-5.961c4.684,2.535,12.1,4.733,19.985,6.994a249.582,249.582,0,0,1,25.733,8.475l-.612-.1a150.266,150.266,0,0,1-21.7-4.719q-3.77-1.159-7.152-2.436a82.516,82.516,0,0,1-16.255-8.219,127.492,127.492,0,0,0,15.127,9.623c4.832,2.773,10.81,6.205,18.449,11.039l-.4-.16c-6.5-2.554-14.181-5.383-21.262-10.025a55.663,55.663,0,0,1-11.909-10.477c9.21,12.1,23.814,17.138,34.384,21.273l.008,0c.019,0,.028-.024.01-.039l-.193-.173a101.356,101.356,0,0,0-16.074-11.87,154.135,154.135,0,0,0,28.3,6.662h0a.026.026,0,0,0,.01-.05l-.293-.162a116.962,116.962,0,0,0-20.9-9.092,147.366,147.366,0,0,0,15.664.583c5.467,0,10.517-.266,14.844-.569.037,0,.042-.063.006-.06l-.306-.094a129.176,129.176,0,0,0-23.749-5.023c11.618-1.066,21.27-3.837,29.872-6.155a.035.035,0,0,0,0-.068l-.319-.032a141.057,141.057,0,0,0-15.282-.849c-3.1,0-6.354.105-9.829.339,11.294-3.091,19.685-7.2,28.207-11.151a.036.036,0,0,0-.011-.07h0l-.337.023a150.64,150.64,0,0,0-25.378,3.868c10.412-4.662,17.952-9.635,25.885-14.862C340.059,131.626,340.046,131.579,340.009,131.579Z" transform="translate(-210.971 -70.347)"/><path class="b" d="M389.1,25.1c0-.839.027-1.28.067-1.844.07-1.109.166-2.623.166-8.1,0-4.014-.07-8.731-.206-14.013a28.063,28.063,0,0,0,5.51-.012c-.079,5.516-.14,9.494-.182,12.431l-.04,2.261c-.061,3.8-.08,5.373-.08,6.744,0,7.034.31,13.222,4.141,17.84,3.035,3.716,7.733,5.675,13.6,5.675,5.741,0,10.73-2.13,13.683-5.846,3.777-4.745,4.052-11.334,4.052-21.619,0-7.165-.067-9.415-.25-16.111l-.036-1.331a13.919,13.919,0,0,0,3.353-.008c-.286,7.487-.356,12.058-.356,13.441v2.051c0,14.255-.1,17.109-3.135,22.418-3.472,5.973-9.726,9.005-18.577,9.005C395.586,48.075,389.1,41.2,389.1,25.1Zm-72.722-.99c0-14.593,9.809-24.028,25-24.028,15.379,0,24.929,9.208,24.929,24.028,0,14.335-10.023,23.968-24.929,23.968C325.948,48.075,316.374,38.891,316.374,24.107Zm5.351.211c0,14.661,6.977,22.736,19.649,22.736,12.487,0,19.65-8.389,19.65-23.018,0-14.835-6.981-23.01-19.65-23.01C328.884,1.025,321.725,9.514,321.725,24.318Zm149.737,23.65c-9.88,0-16.539-4.32-17.877-11.577h.091a21.92,21.92,0,0,0,4.04-.37c.132,6.8,5.248,10.849,13.742,10.849,6.9,0,14.271-2.623,14.271-9.995,0-5.369-3.409-9.383-9.13-10.742-1.279-.306-2.908-.6-4.644-.9-2.5-.445-5.073-.9-7.111-1.482-6.86-1.963-10.341-5.667-10.341-11C454.5,5.393,461.6.06,471.375.06s15.958,3.867,16.986,10.631c-.723-.012-1.421.044-2.105.1a21.714,21.714,0,0,0-2.192.262C483.944,6.132,480.655.994,471.716.994c-7.869,0-12.764,3.644-12.764,9.514,0,4.61,2.983,7.746,8.866,9.323,2.548.688,4.819,1.117,7.021,1.542,1.18.227,2.407.465,3.647.731,8.017,1.737,11.607,7.614,11.607,12.67a11.565,11.565,0,0,1-4.791,9.152c-3.408,2.647-8.187,4.042-13.82,4.042Zm41.134-25.9c0-9.868-.15-14.335-.512-21,2.78.131,5.653.2,8.775.2,3.241,0,16.832-.079,25.155-.223l0,.211c-.027.4-.048.823-.048,1.244,0,.362.021.739.04,1.133l.012.266c-6.439-.5-20.126-.719-25.791-.719h-2.793V20.125h2.245c3.706,0,16.736-.143,24.146-.572-.044.62-.071,1.121-.071,1.566,0,.366.021.771.06,1.252-4.152-.489-16.113-.489-21.922-.489h-4.457V45.031h2.881c4.254,0,17.694-.227,26.024-.8l-.015.262c-.017.405-.037.815-.037,1.22s.021.823.037,1.232l.015.29c-3.988-.123-13.964-.2-19-.2-4.915,0-10.759.079-15.327.207C512.429,40.338,512.6,33.478,512.6,22.072ZM53.927,47.062c-.405,0-.819,0-1.236.028l1.5-3.291C61.435,27.97,66.663,16.517,73.711,0h.405C80,14.732,84.588,25.2,89.888,37.313l.1.234c1.3,2.973,2.646,6.049,4.06,9.3a28.148,28.148,0,0,0-6.007.083,68.416,68.416,0,0,0-2.889-7.638c-.38-.89-.841-1.967-1.426-3.35l-1.545-3.636-.517-.02c-3.258-.163-6.566-.163-9.757-.163-3.389,0-6.583,0-9.845.163l-.508.02-.2.469a99.946,99.946,0,0,0-3.925,10.194c-.39,1.156-.843,2.492-1.435,4.2A14.183,14.183,0,0,0,53.927,47.062Zm8.279-16.62h1.243c.437,0,.97.016,1.58.02l.287.008c1.033.024,2.443.052,4.139.052,1.24,0,2.63-.012,4.177-.032h.079c1.895-.02,4.009-.048,6.341-.048h1.19l-1.759-4.57c-.466-1.3-2.476-6.045-6.821-16.183l-.751-1.753ZM207.23,37.965a128.06,128.06,0,0,0-9.185-9.677c-2.13-1.939-4.394-3.748-6.567-3.831l-.857-.04V36.268c0,4.793.056,5.532.273,8.628l.14,2a27.074,27.074,0,0,0-2.825-.1,23.15,23.15,0,0,0-2.67.1c.417-6.494.481-8.215.481-16.079,0-13.468-.155-22.911-.5-29.671a28.2,28.2,0,0,0,5.494-.008c-.254,3.247-.393,7.241-.393,11.887l.008,9.3.088.318a1.15,1.15,0,0,0,1.128.688c1.485,0,4.663-1.908,8.5-5.1a135.524,135.524,0,0,0,16.583-17.14,26.6,26.6,0,0,0,4.131.171c-2.705,2.349-5.9,5.544-9.876,9.526L197.542,23.626l.595.6C205.77,31.873,211.3,37.428,222,46.939c-.762-.032-1.521-.032-2.26-.032a30.559,30.559,0,0,0-4.132.187C212.459,43.851,209.7,40.739,207.23,37.965ZM120.216,27.251c0-11.064-.163-19.624-.5-26.166.313.024.607.044.893.072.727.06,1.359.111,1.875.111,1.542,0,6.667-.052,8.51-.107,2.105-.056,4.724-.127,7.54-.127,11.577,0,16.969,3.752,16.969,11.823,0,7.114-5.38,12.022-15.141,13.826l-1.395.254.918,1.085c3.258,3.827,5.641,6.47,8.168,9.272,2.292,2.532,4.874,5.4,8.461,9.546-.948-.052-1.882-.052-2.788-.052a33.291,33.291,0,0,0-4.2.175,98.276,98.276,0,0,0-8.55-10.806L134.529,28.9c-1.382-1.9-6.356-2.273-8.628-1.947l-.927.135v8.974c0,2.965.111,6.359.347,10.977a25.352,25.352,0,0,0-2.763-.1,26.243,26.243,0,0,0-2.84.107C120.144,39.9,120.216,37.031,120.216,27.251Zm6-24.7-.671.04-.091.668a61.932,61.932,0,0,0-.481,8.175V26.106l.755.068c.89.072,4.549.076,6.082.076,12.245,0,18.45-4.185,18.45-12.443,0-7.63-4.852-11.493-14.417-11.493C134.354,2.313,128.725,2.388,126.218,2.551Zm163.3,44.355a26.687,26.687,0,0,0-2.75.1c.414-4.65.616-12.523.585-22.227l-.008-.227h-.224q-4.367-.072-8.453-.107c-2.741-.02-5.566-.032-8.49-.032s-5.761.012-8.493.032-5.542.06-8.454.107h-.223v.227c-.012,8.54.071,19.283.342,22.227a24.728,24.728,0,0,0-5.634,0c.47-7.543.651-15.018.651-26.555,0-9.176-.071-13.095-.488-19.2a28.611,28.611,0,0,0,5.534.008c-.247,2.551-.373,12.678-.4,20.86v.23l8.669.135c2.721.04,5.581.068,8.493.068s5.769-.028,8.49-.068l8.665-.135v-.23c-.072-8.441-.326-16.755-.636-20.868a31.51,31.51,0,0,0,5.744,0l-.1,1.908c-.274,5.548-.413,9.554-.413,17.291,0,7.487.171,14.959.6,26.571A27.657,27.657,0,0,0,289.522,46.907ZM.083,44.522c.239-6.212.354-9.327.354-17.272C.438,18.011.286,9.212,0,1.117c1.145.1,2.13.151,3.016.151,1.887,0,5.649-.052,7.743-.111,2.312-.06,6.261-.123,8.863-.123,10.89,0,16.888,4.5,16.888,12.693,0,9.721-7.484,15.078-21.079,15.078-5.665,0-8.264-.087-9.439-.163l-.874-.048v5.854c0,3.06.14,7.142.426,12.471a22.247,22.247,0,0,0-2.448-.091A29.288,29.288,0,0,0,0,46.939ZM6.261,2.4,5.55,2.46l-.035.715c-.267,5.762-.4,11.108-.4,16.322v7.889l.771.052c1.168.079,5.824.159,7.021.159,11.818,0,17.813-4.427,17.813-13.158S26.065,2.154,14.644,2.154C12.932,2.154,8.01,2.233,6.261,2.4Z" transform="translate(169.897 16.446)"/><path class="a" d="M10.26,9.475v3.437q0,1.319-.05,2.6t-.11,2.518q.459-.04.979-.04t.979.04q-.06-1.239-.11-2.518t-.05-2.6V11.453h.759q.639.659,1.408,1.609t1.508,1.908q.739.959,1.348,1.8t.909,1.259a4.092,4.092,0,0,1,.579-.04h1.178a4.528,4.528,0,0,1,.6.04q-.28-.28-.739-.819t-.979-1.189q-.519-.649-1.079-1.359T16.312,13.3q-.519-.649-.939-1.189t-.659-.839A6.671,6.671,0,0,0,16,10.944a5.18,5.18,0,0,0,1.328-.7,4.005,4.005,0,0,0,1.049-1.139,3.055,3.055,0,0,0,.429-1.648,3.081,3.081,0,0,0-.33-1.5,2.673,2.673,0,0,0-.9-.969,3.884,3.884,0,0,0-1.328-.53,7.739,7.739,0,0,0-1.6-.16q-.579,0-1.139.05t-1.139.05q-.579,0-1.139-.03T10.1,4.3q.06,1.319.11,2.588T10.26,9.475ZM11.9,10.614V9.475q0-1.079.04-2.158t.08-2.178q.32-.04.779-.07t1.159-.03a5.293,5.293,0,0,1,1.059.11,2.855,2.855,0,0,1,1,.41,2.309,2.309,0,0,1,.749.809,2.582,2.582,0,0,1,.29,1.289,2.757,2.757,0,0,1-.37,1.489,2.911,2.911,0,0,1-.929.939,3.741,3.741,0,0,1-1.228.49,6.3,6.3,0,0,1-1.288.14q-.4,0-.729-.02A4.094,4.094,0,0,1,11.9,10.614ZM30.454,9.455v3.437q0,1.319-.05,2.588t-.11,2.548q.919-.04,1.818-.04h3.625q.889,0,1.788.04a1.854,1.854,0,0,1-.06-.52q0-.14.01-.31a1.435,1.435,0,0,1,.05-.31,8.981,8.981,0,0,1-1.129.15q-.649.05-1.378.08t-1.488.03h-1.4q-.02-.38-.03-1.119t-.01-1.878V12.172q0-.32.01-.53t.01-.39q.36,0,.969.01l1.3.02q.689.01,1.378.05t1.208.1a3.051,3.051,0,0,1-.06-.6,3.152,3.152,0,0,1,.06-.619q-.439.04-.929.07t-1.069.06q-.579.03-1.278.05t-1.578.02q0-.38-.01-1.119t-.01-1.519q0-.739.03-1.319t.05-1.219q.979,0,1.678.03t1.288.07q.589.04,1.119.08t1.169.08a3.028,3.028,0,0,1,0-1.2q-.9.04-1.778.07T33.87,4.4q-.9,0-1.788-.03T30.294,4.3q.06,1.279.11,2.558T30.454,9.455Zm17.538,5.974h-.24q-.06.579-.13.949a4.719,4.719,0,0,1-.25.829,5.472,5.472,0,0,0,1.288.749,5.154,5.154,0,0,0,2.007.33,6.038,6.038,0,0,0,2.067-.33,4.269,4.269,0,0,0,1.538-.939,4.093,4.093,0,0,0,.959-1.429,4.614,4.614,0,0,0,.33-1.738,2.973,2.973,0,0,0-.469-1.758,3.851,3.851,0,0,0-1.169-1.079,8.472,8.472,0,0,0-1.508-.709,11.563,11.563,0,0,1-1.508-.659,4.016,4.016,0,0,1-1.169-.909,2.177,2.177,0,0,1-.469-1.479,2.592,2.592,0,0,1,.19-1A2.252,2.252,0,0,1,50,5.469a2.465,2.465,0,0,1,.819-.51,2.853,2.853,0,0,1,1.029-.18,2.218,2.218,0,0,1,.959.19,2.569,2.569,0,0,1,.689.47,2.33,2.33,0,0,1,.459.609,5.07,5.07,0,0,1,.27.609h.24q.12-.579.24-.959a4.3,4.3,0,0,1,.3-.719,4.131,4.131,0,0,0-1.3-.709,5.329,5.329,0,0,0-1.658-.23,5.418,5.418,0,0,0-1.8.28A4.1,4.1,0,0,0,48.88,5.1a3.33,3.33,0,0,0-.869,1.189,3.8,3.8,0,0,0-.3,1.529,3.324,3.324,0,0,0,.469,1.878,4,4,0,0,0,1.169,1.149,7.766,7.766,0,0,0,1.508.749,13.7,13.7,0,0,1,1.508.659,3.879,3.879,0,0,1,1.169.9A2.145,2.145,0,0,1,54,14.61a3.172,3.172,0,0,1-.2,1.129,2.65,2.65,0,0,1-1.468,1.539,2.955,2.955,0,0,1-1.188.23,3.341,3.341,0,0,1-2.067-.679,3.3,3.3,0,0,1-.659-.669A4,4,0,0,1,47.991,15.429ZM66.408,9.475v3.437q0,1.319-.05,2.6t-.11,2.518q.459-.04.979-.04t.979.04q-.06-1.239-.11-2.518t-.05-2.6V9.475q0-1.319.05-2.588t.11-2.588q-.26.04-.5.07a3.849,3.849,0,0,1-.959,0q-.24-.03-.5-.07.06,1.319.11,2.588T66.408,9.475Zm13.543,0v3.437q0,1.319-.05,2.6t-.11,2.518q.679-.04,1.338-.04h1.338q.679,0,1.338.02t1.338.02a9.415,9.415,0,0,0,2.467-.35,6.567,6.567,0,0,0,2.357-1.189,6.427,6.427,0,0,0,1.758-2.208,7.435,7.435,0,0,0,.689-3.367,9.6,9.6,0,0,0-.37-2.767,5.138,5.138,0,0,0-1.169-2.078,5.242,5.242,0,0,0-2.047-1.309,8.727,8.727,0,0,0-3.006-.46q-.759,0-1.508.05t-1.508.05q-.759,0-1.508-.03T79.791,4.3q.06,1.319.11,2.588T79.95,9.475Zm1.638,3.437V9.475q0-1.079.03-2.128t.09-2.008q.619-.08,1.4-.14t1.678-.06a9.736,9.736,0,0,1,2.277.25,4.169,4.169,0,0,1,1.788.9,4.345,4.345,0,0,1,1.178,1.768,8.071,8.071,0,0,1,.429,2.857,8.08,8.08,0,0,1-.549,3.227,5.231,5.231,0,0,1-1.418,1.968,4.764,4.764,0,0,1-1.967.979,9.52,9.52,0,0,1-2.2.26q-.759,0-1.478-.05a7.332,7.332,0,0,1-1.139-.15Q81.588,15.07,81.588,12.912ZM103.48,9.455v3.437q0,1.319-.05,2.588t-.11,2.548q.919-.04,1.818-.04h3.625q.889,0,1.788.04a1.854,1.854,0,0,1-.06-.52q0-.14.01-.31a1.435,1.435,0,0,1,.05-.31,8.981,8.981,0,0,1-1.129.15q-.649.05-1.378.08t-1.488.03h-1.4q-.02-.38-.03-1.119t-.01-1.878V12.172q0-.32.01-.53t.01-.39q.36,0,.969.01l1.3.02q.689.01,1.378.05t1.208.1a3.051,3.051,0,0,1-.06-.6,3.153,3.153,0,0,1,.06-.619q-.439.04-.929.07t-1.069.06q-.579.03-1.278.05t-1.578.02q0-.38-.01-1.119t-.01-1.519q0-.739.03-1.319t.05-1.219q.979,0,1.678.03t1.288.07q.589.04,1.119.08t1.169.08a3.028,3.028,0,0,1,0-1.2q-.9.04-1.778.07T106.9,4.4q-.9,0-1.788-.03t-1.788-.07q.06,1.279.11,2.558T103.48,9.455ZM132.7,18.287h.28v-.659q0-.48-.01-1.129t-.02-1.4q-.01-.749-.02-1.489t-.01-1.419v-1.2q0-.579.04-1.539t.09-1.958q.05-1,.1-1.878t.09-1.319a2.785,2.785,0,0,1-.639.1,2.878,2.878,0,0,1-.679-.1q.1,1.758.13,3.747t.03,4.086V14.85q-.919-.919-2.147-2.228t-2.6-2.777q-1.368-1.469-2.756-2.977T121.977,4.04h-.32q.04.679.05,2.058t.01,3.3q0,.659-.02,1.5t-.05,1.718q-.03.879-.08,1.758T121.477,16q-.04.749-.09,1.289t-.09.739a6.345,6.345,0,0,1,.739-.04,5.656,5.656,0,0,1,.7.04q-.02-.16-.04-.609t-.04-1.049q-.02-.6-.04-1.3t-.03-1.379q-.01-.679-.02-1.3t-.01-1.039q0-1.618.02-2.558t.04-1.5q2.6,2.757,5.193,5.545T132.7,18.287Zm22.611-1.079.18-1.179-.08-.08q-.28.22-.689.51a6.679,6.679,0,0,1-.919.539,7.109,7.109,0,0,1-1.119.43,4.676,4.676,0,0,1-1.328.18,6.16,6.16,0,0,1-2.187-.38,4.656,4.656,0,0,1-1.758-1.169,5.45,5.45,0,0,1-1.168-2,8.768,8.768,0,0,1-.419-2.867,8.768,8.768,0,0,1,.419-2.867,5.45,5.45,0,0,1,1.168-2,4.656,4.656,0,0,1,1.758-1.169,6.16,6.16,0,0,1,2.187-.38,4.348,4.348,0,0,1,1.318.19,5.322,5.322,0,0,1,1.079.47,6.148,6.148,0,0,1,.839.579,4.416,4.416,0,0,1,.559.539l.12-.04q.06-.32.16-.8a2.639,2.639,0,0,1,.26-.759,11.245,11.245,0,0,0-1.928-.649,10.008,10.008,0,0,0-2.407-.27,9.187,9.187,0,0,0-3.036.48,6.625,6.625,0,0,0-2.367,1.4,6.318,6.318,0,0,0-1.538,2.248,7.866,7.866,0,0,0-.549,3.027,7.866,7.866,0,0,0,.549,3.027,6.447,6.447,0,0,0,1.518,2.248,6.146,6.146,0,0,0,2.307,1.369,9.106,9.106,0,0,0,2.916.45,8.148,8.148,0,0,0,1.418-.12q.679-.12,1.228-.27a5.406,5.406,0,0,0,.939-.34A2.6,2.6,0,0,0,155.314,17.208ZM166.3,9.455v3.437q0,1.319-.05,2.588t-.11,2.548q.919-.04,1.818-.04h3.625q.889,0,1.788.04a1.854,1.854,0,0,1-.06-.52q0-.14.01-.31a1.436,1.436,0,0,1,.05-.31,8.98,8.98,0,0,1-1.129.15q-.649.05-1.378.08t-1.488.03h-1.4q-.02-.38-.03-1.119t-.01-1.878V12.172q0-.32.01-.53t.01-.39q.36,0,.969.01l1.3.02q.689.01,1.378.05t1.208.1a3.052,3.052,0,0,1-.06-.6,3.154,3.154,0,0,1,.06-.619q-.439.04-.929.07t-1.069.06q-.579.03-1.278.05t-1.578.02q0-.38-.01-1.119t-.01-1.519q0-.739.03-1.319t.05-1.219q.979,0,1.678.03t1.288.07q.589.04,1.119.08t1.168.08a3.029,3.029,0,0,1,0-1.2q-.9.04-1.778.07t-1.778.03q-.9,0-1.788-.03T166.14,4.3q.06,1.279.11,2.558T166.3,9.455Zm17.538,5.974h-.24q-.06.579-.13.949a4.714,4.714,0,0,1-.25.829,5.473,5.473,0,0,0,1.288.749,5.154,5.154,0,0,0,2.007.33,6.038,6.038,0,0,0,2.067-.33,4.269,4.269,0,0,0,1.538-.939,4.093,4.093,0,0,0,.959-1.429,4.614,4.614,0,0,0,.33-1.738,2.973,2.973,0,0,0-.469-1.758,3.852,3.852,0,0,0-1.169-1.079,8.473,8.473,0,0,0-1.508-.709,11.562,11.562,0,0,1-1.508-.659,4.016,4.016,0,0,1-1.169-.909,2.177,2.177,0,0,1-.469-1.479,2.592,2.592,0,0,1,.19-1,2.252,2.252,0,0,1,.539-.789,2.464,2.464,0,0,1,.819-.51,2.853,2.853,0,0,1,1.029-.18,2.218,2.218,0,0,1,.959.19,2.569,2.569,0,0,1,.689.47,2.331,2.331,0,0,1,.459.609,5.072,5.072,0,0,1,.27.609h.24q.12-.579.24-.959a4.3,4.3,0,0,1,.3-.719,4.131,4.131,0,0,0-1.3-.709,5.33,5.33,0,0,0-1.658-.23,5.418,5.418,0,0,0-1.8.28,4.1,4.1,0,0,0-1.368.779,3.329,3.329,0,0,0-.869,1.189,3.8,3.8,0,0,0-.3,1.529,3.324,3.324,0,0,0,.469,1.878,4,4,0,0,0,1.168,1.149,7.766,7.766,0,0,0,1.508.749,13.7,13.7,0,0,1,1.508.659,3.879,3.879,0,0,1,1.169.9,2.145,2.145,0,0,1,.469,1.459,3.172,3.172,0,0,1-.2,1.129,2.65,2.65,0,0,1-1.468,1.539,2.955,2.955,0,0,1-1.188.23,3.342,3.342,0,0,1-2.067-.679,3.3,3.3,0,0,1-.659-.669A4,4,0,0,1,183.837,15.429Zm33.4-3.617q.519,0,1.079.02t1.079.02q.559,0,1.119-.01t1.119-.03l-2.217-5.075Zm8.849,6.214a3.749,3.749,0,0,0-.529-.04H224.5a3.749,3.749,0,0,0-.529.04q-.14-.46-.38-1.109t-.529-1.359q-.29-.709-.589-1.439t-.559-1.389q-.639-.02-1.3-.03t-1.318-.01q-.619,0-1.218.01t-1.218.03q-.639,1.559-1.158,2.967t-.779,2.328a6.854,6.854,0,0,0-1.478,0q1.618-3.5,3.156-6.954t3.1-7.033h.379q.479,1.159,1.039,2.508t1.139,2.727q.579,1.379,1.159,2.737T224.5,14.54q.509,1.169.919,2.088T226.083,18.027Zm11.585-8.552v3.437q0,1.319-.05,2.6t-.11,2.518q.459-.04.979-.04t.979.04q-.06-1.239-.11-2.518t-.05-2.6V9.475q0-2.078.06-4.136.519,0,1.089.01t1.139.04q.569.03,1.1.07t.949.1a2.372,2.372,0,0,1-.1-.619,2.79,2.79,0,0,1,.1-.639q-1.318.04-2.577.07t-2.577.03q-1.318,0-2.577-.03t-2.577-.07a2.756,2.756,0,0,1,.1.619,2.424,2.424,0,0,1-.1.639q.419-.06.949-.1t1.1-.07q.569-.03,1.139-.04t1.089-.01Q237.668,7.4,237.668,9.475Zm40.268,1.319q0,.619-.02,1.359a11.114,11.114,0,0,1-.14,1.479,6.767,6.767,0,0,1-.39,1.419,3.838,3.838,0,0,1-.749,1.2,3.525,3.525,0,0,1-1.228.839,4.712,4.712,0,0,1-1.848.32,5.656,5.656,0,0,1-1.878-.27,3.538,3.538,0,0,1-1.258-.739,3.249,3.249,0,0,1-.769-1.1,5.9,5.9,0,0,1-.389-1.319,9.842,9.842,0,0,1-.14-1.419q-.02-.729-.02-1.409,0-1.119.02-2.158t.06-1.938q.04-.9.08-1.609t.08-1.149q-.22.04-.429.07a3.033,3.033,0,0,1-.429.03,4.9,4.9,0,0,1-.519-.03q-.28-.03-.519-.07.04.9.08,2.2t.04,2.977q0,.759-.05,1.489t-.05,1.668a5.875,5.875,0,0,0,1.358,4.3,5.965,5.965,0,0,0,4.354,1.359,7.049,7.049,0,0,0,2.407-.38,4.616,4.616,0,0,0,1.768-1.119,5.032,5.032,0,0,0,1.109-1.8,7.232,7.232,0,0,0,.409-2.4q.02-1.1.06-2.268t.08-2.278q.04-1.109.1-2.078t.12-1.668a2.158,2.158,0,0,1-.6.1,2.689,2.689,0,0,1-.4-.03q-.2-.03-.419-.07a20.345,20.345,0,0,1,.1,2.118Q277.937,7.956,277.937,10.794Zm14.761.18V5.039h1.8a8.049,8.049,0,0,1,1.4.11,2.6,2.6,0,0,1,1.049.41,1.969,1.969,0,0,1,.669.839,3.473,3.473,0,0,1,.24,1.4,3.5,3.5,0,0,1-.35,1.668,2.8,2.8,0,0,1-.9,1.019,3.412,3.412,0,0,1-1.208.51,6.145,6.145,0,0,1-2.7-.02Zm-1.638-1.5v3.437q0,1.319-.05,2.6t-.11,2.518q.459-.04.979-.04t.979.04q-.06-1.239-.11-2.518t-.05-2.6v-1.1q.4.04.779.05t.839.01a9.842,9.842,0,0,0,1.648-.16,5.538,5.538,0,0,0,1.758-.619,4.129,4.129,0,0,0,1.4-1.279,3.672,3.672,0,0,0,.569-2.138,3.639,3.639,0,0,0-.24-1.409,2.848,2.848,0,0,0-.629-.949,2.759,2.759,0,0,0-.869-.579,5.238,5.238,0,0,0-.969-.3,6.022,6.022,0,0,0-.929-.12q-.439-.02-.739-.02-.22,0-.539.02t-.669.03q-.35.01-.689.03t-.579.02q-.479,0-.969-.03T290.9,4.3q.06,1.319.11,2.588T291.06,9.475Zm21.872,0v3.437q0,1.319-.05,2.6t-.11,2.518q.459-.04.979-.04t.979.04q-.06-1.239-.11-2.518t-.05-2.6V9.475q0-2.078.06-4.136.519,0,1.089.01t1.139.04q.569.03,1.1.07t.949.1a2.37,2.37,0,0,1-.1-.619,2.788,2.788,0,0,1,.1-.639q-1.318.04-2.577.07t-2.577.03q-1.318,0-2.577-.03T308.6,4.3a2.753,2.753,0,0,1,.1.619,2.422,2.422,0,0,1-.1.639q.419-.06.949-.1t1.1-.07q.569-.03,1.139-.04t1.089-.01Q312.932,7.4,312.932,9.475Zm14.461,1.718a7.865,7.865,0,0,0,.549,3.027,6.163,6.163,0,0,0,3.9,3.617,10.409,10.409,0,0,0,6.052,0,6.163,6.163,0,0,0,3.9-3.617,7.865,7.865,0,0,0,.549-3.027,7.865,7.865,0,0,0-.549-3.027,6.318,6.318,0,0,0-1.538-2.248,6.624,6.624,0,0,0-2.367-1.4,9.788,9.788,0,0,0-6.052,0,6.625,6.625,0,0,0-2.367,1.4,6.318,6.318,0,0,0-1.538,2.248A7.865,7.865,0,0,0,327.393,11.193Zm13,0a8.768,8.768,0,0,1-.419,2.867,5.451,5.451,0,0,1-1.169,2,4.656,4.656,0,0,1-1.758,1.169,6.433,6.433,0,0,1-4.354,0,4.656,4.656,0,0,1-1.758-1.169,5.45,5.45,0,0,1-1.168-2,8.768,8.768,0,0,1-.419-2.867,8.768,8.768,0,0,1,.419-2.867,5.45,5.45,0,0,1,1.168-2A4.656,4.656,0,0,1,332.7,5.159a6.433,6.433,0,0,1,4.354,0,4.656,4.656,0,0,1,1.758,1.169,5.451,5.451,0,0,1,1.169,2A8.768,8.768,0,0,1,340.4,11.193Zm15,6.834a6.135,6.135,0,0,1,1.4,0q.3-.879.659-1.958t.739-2.2q.38-1.119.759-2.218t.709-2.058q.33-.959.6-1.728t.429-1.229h.04q1.019,3,1.9,5.8t1.778,5.585a5.79,5.79,0,0,1,1.358,0q.18-.48.549-1.569T367.152,14q.469-1.369.979-2.887t.979-2.877q.469-1.359.849-2.418t.579-1.519q-.18.04-.35.07a2.053,2.053,0,0,1-.7,0q-.17-.03-.35-.07-.1.44-.37,1.359t-.619,2.088q-.35,1.169-.739,2.458t-.759,2.458q-.37,1.169-.659,2.1t-.429,1.369h-.04q-.18-.52-.489-1.439t-.689-2.058q-.38-1.139-.789-2.378t-.769-2.388q-.36-1.149-.649-2.088T361.709,4.3a2.224,2.224,0,0,1-1.318,0q-.12.5-.4,1.429t-.639,2.058q-.36,1.129-.779,2.368t-.8,2.388q-.379,1.149-.7,2.1t-.5,1.489h-.04q-.6-1.9-1.069-3.407t-.879-2.877q-.41-1.369-.769-2.7T353.08,4.3q-.26.04-.5.07a4.175,4.175,0,0,1-1,0q-.24-.03-.5-.07.2.52.549,1.6t.769,2.428q.419,1.349.879,2.837l.879,2.847q.419,1.359.749,2.438T355.4,18.027Zm36.593.26h.28v-.659q0-.48-.01-1.129t-.02-1.4q-.01-.749-.02-1.489t-.01-1.419v-1.2q0-.579.04-1.539t.09-1.958q.05-1,.1-1.878t.09-1.319a2.786,2.786,0,0,1-.639.1,2.877,2.877,0,0,1-.679-.1q.1,1.758.13,3.747t.03,4.086V14.85q-.919-.919-2.147-2.228t-2.6-2.777q-1.368-1.469-2.757-2.977T381.264,4.04h-.32q.04.679.05,2.058T381,9.4q0,.659-.02,1.5t-.05,1.718q-.03.879-.08,1.758T380.765,16q-.04.749-.09,1.289t-.09.739a6.346,6.346,0,0,1,.739-.04,5.655,5.655,0,0,1,.7.04q-.02-.16-.04-.609t-.04-1.049q-.02-.6-.04-1.3t-.03-1.379q-.01-.679-.02-1.3t-.01-1.039q0-1.618.02-2.558t.04-1.5q2.6,2.757,5.193,5.545T391.99,18.287Zm37.072,0h.28v-.659q0-.48-.01-1.129t-.02-1.4q-.01-.749-.02-1.489t-.01-1.419v-1.2q0-.579.04-1.539t.09-1.958q.05-1,.1-1.878T429.6,4.3a2.786,2.786,0,0,1-.639.1,2.878,2.878,0,0,1-.679-.1q.1,1.758.13,3.747t.03,4.086V14.85q-.919-.919-2.147-2.228t-2.6-2.777q-1.368-1.469-2.756-2.977T418.337,4.04h-.32q.04.679.05,2.058t.01,3.3q0,.659-.02,1.5t-.05,1.718q-.03.879-.08,1.758T417.837,16q-.04.749-.09,1.289t-.09.739a6.346,6.346,0,0,1,.739-.04,5.656,5.656,0,0,1,.7.04q-.02-.16-.04-.609t-.04-1.049q-.02-.6-.04-1.3t-.03-1.379q-.01-.679-.02-1.3t-.01-1.039q0-1.618.02-2.558t.04-1.5q2.6,2.757,5.193,5.545T429.063,18.287Zm12.284-8.832v3.437q0,1.319-.05,2.588t-.11,2.548q.919-.04,1.818-.04h3.625q.889,0,1.788.04a1.852,1.852,0,0,1-.06-.52q0-.14.01-.31a1.432,1.432,0,0,1,.05-.31,8.983,8.983,0,0,1-1.129.15q-.649.05-1.378.08t-1.488.03h-1.4q-.02-.38-.03-1.119t-.01-1.878V12.172q0-.32.01-.53t.01-.39q.36,0,.969.01l1.3.02q.689.01,1.378.05t1.208.1a3.048,3.048,0,0,1-.06-.6,3.15,3.15,0,0,1,.06-.619q-.439.04-.929.07t-1.069.06q-.579.03-1.278.05t-1.578.02q0-.38-.01-1.119t-.01-1.519q0-.739.03-1.319t.05-1.219q.979,0,1.678.03t1.288.07q.589.04,1.119.08t1.169.08a3.028,3.028,0,0,1,0-1.2q-.9.04-1.778.07t-1.778.03q-.9,0-1.788-.03t-1.788-.07q.06,1.279.11,2.558T441.347,9.455Zm20.594,8.572a6.135,6.135,0,0,1,1.4,0q.3-.879.659-1.958t.739-2.2q.379-1.119.759-2.218t.709-2.058q.33-.959.6-1.728t.429-1.229h.04q1.019,3,1.9,5.8t1.778,5.585a5.79,5.79,0,0,1,1.358,0q.18-.48.549-1.569T473.7,14q.469-1.369.979-2.887t.979-2.877q.469-1.359.849-2.418t.579-1.519q-.18.04-.35.07a2.054,2.054,0,0,1-.7,0q-.17-.03-.35-.07-.1.44-.37,1.359t-.619,2.088q-.35,1.169-.739,2.458t-.759,2.458q-.37,1.169-.659,2.1t-.429,1.369h-.04q-.18-.52-.489-1.439t-.689-2.058q-.379-1.139-.789-2.378t-.769-2.388q-.36-1.149-.649-2.088T468.253,4.3a2.224,2.224,0,0,1-1.318,0q-.12.5-.4,1.429T465.9,7.787q-.36,1.129-.779,2.368t-.8,2.388q-.379,1.149-.7,2.1t-.5,1.489h-.04q-.6-1.9-1.069-3.407t-.879-2.877q-.409-1.369-.769-2.7T459.624,4.3q-.26.04-.5.07a4.175,4.175,0,0,1-1,0q-.24-.03-.5-.07.2.52.549,1.6t.769,2.428q.419,1.349.879,2.837l.879,2.847q.419,1.359.749,2.438T461.941,18.027Zm26.985-7.053V5.039h1.8a8.048,8.048,0,0,1,1.4.11,2.6,2.6,0,0,1,1.049.41,1.969,1.969,0,0,1,.669.839,3.473,3.473,0,0,1,.24,1.4,3.5,3.5,0,0,1-.35,1.668,2.8,2.8,0,0,1-.9,1.019,3.412,3.412,0,0,1-1.208.51,6.145,6.145,0,0,1-2.7-.02Zm-1.638-1.5v3.437q0,1.319-.05,2.6t-.11,2.518q.459-.04.979-.04t.979.04q-.06-1.239-.11-2.518t-.05-2.6v-1.1q.4.04.779.05t.839.01a9.842,9.842,0,0,0,1.648-.16,5.538,5.538,0,0,0,1.758-.619,4.128,4.128,0,0,0,1.4-1.279,3.672,3.672,0,0,0,.569-2.138,3.64,3.64,0,0,0-.24-1.409,2.848,2.848,0,0,0-.629-.949,2.758,2.758,0,0,0-.869-.579,5.238,5.238,0,0,0-.969-.3,6.022,6.022,0,0,0-.929-.12q-.439-.02-.739-.02-.22,0-.539.02t-.669.03q-.35.01-.689.03t-.579.02q-.479,0-.969-.03t-.969-.07q.06,1.319.11,2.588T487.288,9.475Zm17.977,1.718a7.865,7.865,0,0,0,.549,3.027,6.163,6.163,0,0,0,3.9,3.617,10.409,10.409,0,0,0,6.052,0,6.164,6.164,0,0,0,3.905-3.617,7.866,7.866,0,0,0,.549-3.027,7.866,7.866,0,0,0-.549-3.027,6.318,6.318,0,0,0-1.538-2.248,6.623,6.623,0,0,0-2.367-1.4,9.788,9.788,0,0,0-6.052,0,6.624,6.624,0,0,0-2.367,1.4,6.317,6.317,0,0,0-1.538,2.248A7.865,7.865,0,0,0,505.265,11.193Zm13,0a8.768,8.768,0,0,1-.419,2.867,5.449,5.449,0,0,1-1.169,2,4.655,4.655,0,0,1-1.758,1.169,6.433,6.433,0,0,1-4.354,0,4.656,4.656,0,0,1-1.758-1.169,5.45,5.45,0,0,1-1.169-2,8.767,8.767,0,0,1-.419-2.867,8.767,8.767,0,0,1,.419-2.867,5.45,5.45,0,0,1,1.169-2,4.656,4.656,0,0,1,1.758-1.169,6.433,6.433,0,0,1,4.354,0,4.655,4.655,0,0,1,1.758,1.169,5.449,5.449,0,0,1,1.169,2A8.768,8.768,0,0,1,518.269,11.193Zm12.744-1.718v3.437q0,1.319-.05,2.6t-.11,2.518q.459-.04.979-.04t.979.04q-.06-1.239-.11-2.518t-.05-2.6V11.453h.759q.639.659,1.408,1.609t1.508,1.908q.739.959,1.348,1.8t.909,1.259a4.092,4.092,0,0,1,.579-.04h1.178a4.528,4.528,0,0,1,.6.04q-.28-.28-.739-.819t-.979-1.189q-.519-.649-1.079-1.359T537.065,13.3q-.519-.649-.939-1.189t-.659-.839a6.672,6.672,0,0,0,1.288-.33,5.179,5.179,0,0,0,1.328-.7,4.006,4.006,0,0,0,1.049-1.139,3.055,3.055,0,0,0,.429-1.648,3.08,3.08,0,0,0-.33-1.5,2.673,2.673,0,0,0-.9-.969A3.884,3.884,0,0,0,537,4.46a7.738,7.738,0,0,0-1.6-.16q-.579,0-1.139.05t-1.138.05q-.579,0-1.139-.03t-1.139-.07q.06,1.319.11,2.588T531.012,9.475Zm1.638,1.139V9.475q0-1.079.04-2.158t.08-2.178q.32-.04.779-.07t1.159-.03a5.294,5.294,0,0,1,1.059.11,2.855,2.855,0,0,1,1,.41,2.308,2.308,0,0,1,.749.809,2.581,2.581,0,0,1,.29,1.289,2.757,2.757,0,0,1-.37,1.489,2.911,2.911,0,0,1-.929.939,3.742,3.742,0,0,1-1.229.49,6.3,6.3,0,0,1-1.288.14q-.4,0-.729-.02A4.094,4.094,0,0,1,532.65,10.614Zm20.973-1.139v3.437q0,1.319-.05,2.6t-.11,2.518q.459-.04.979-.04t.979.04q-.06-1.239-.11-2.518t-.05-2.6V9.475q0-2.078.06-4.136.519,0,1.089.01t1.139.04q.569.03,1.1.07t.949.1a2.37,2.37,0,0,1-.1-.619,2.788,2.788,0,0,1,.1-.639q-1.318.04-2.577.07t-2.577.03q-1.318,0-2.577-.03t-2.577-.07a2.755,2.755,0,0,1,.1.619,2.423,2.423,0,0,1-.1.639q.419-.06.949-.1t1.1-.07q.569-.03,1.139-.04t1.089-.01Q553.623,7.4,553.623,9.475Z" transform="translate(158.404 84.012)"/></svg>